<svg width="421" height="896" viewBox="0 0 421 896" fill="none" xmlns="http://www.w3.org/2000/svg">
<path fill-opacity="0.3" d="M138.333 896C217.494 896 281.666 831.828 281.667 752.667L138.333 752.667L138.333 896Z" fill="url(#paint0_linear_5581_34494)"/>
<path d="M412.621 57.3493C427.114 61.233 438.436 72.554 442.319 87.0478L497.966 294.724C501.849 309.218 497.706 324.683 487.095 335.293L335.066 487.323C324.455 497.933 308.991 502.077 294.497 498.193L86.8203 442.547C72.3264 438.663 61.0054 427.342 57.1218 412.848L1.47504 205.172C-2.40858 190.678 1.73519 175.213 12.3454 164.603L164.375 12.573C174.985 1.96274 190.45 -2.18104 204.944 1.70258L412.621 57.3493Z" fill="#F9F7F2"/>
<defs>
<linearGradient id="paint0_linear_5581_34494" x1="281.666" y1="824.334" x2="138.333" y2="824.334" gradientUnits="userSpaceOnUse">
<stop stop-color="#D3B25B"/>
<stop offset="1" stop-color="white" stop-opacity="0"/>
</linearGradient>
</defs>
</svg>
