<svg width="597" height="717" viewBox="0 0 597 717" fill="none" opacity="0.2" xmlns="http://www.w3.org/2000/svg">
<path d="M-120 645C-120 605.42 -87.9135 573.334 -48.3331 573.334C-8.75275 573.334 23.3335 605.42 23.3335 645C23.3335 684.581 -8.75276 716.667 -48.3332 716.667C-87.9136 716.667 -120 684.581 -120 645Z" fill="url(#paint0_linear_5581_34494)"/>
<path d="M166.667 143.333L23.3335 143.333L166.667 286.666L166.667 143.333Z" fill="url(#paint1_linear_5581_34494)"/>
<path d="M596.667 -0.000225345C517.506 -0.000235725 453.334 64.1723 453.333 143.333L596.667 143.333L596.667 -0.000225345Z" fill="url(#paint2_linear_5581_34494)"/>
<defs>
<linearGradient id="paint0_linear_5581_34494" x1="-48.3332" y1="716.667" x2="-48.3331" y2="573.334" gradientUnits="userSpaceOnUse">
<stop stop-color="#D3B25B"/>
<stop offset="1" stop-color="white" stop-opacity="0"/>
</linearGradient>
<linearGradient id="paint1_linear_5581_34494" x1="23.3335" y1="215" x2="166.667" y2="215" gradientUnits="userSpaceOnUse">
<stop stop-color="#D3B25B"/>
<stop offset="1" stop-color="white" stop-opacity="0"/>
</linearGradient>
<linearGradient id="paint2_linear_5581_34494" x1="453.334" y1="71.6664" x2="596.667" y2="71.6664" gradientUnits="userSpaceOnUse">
<stop stop-color="#D3B25B"/>
<stop offset="1" stop-color="white" stop-opacity="0"/>
</linearGradient>
</defs>
</svg>
