<svg width="717" height="717" viewBox="0 0 717 717" fill="none" opacity="0.3" xmlns="http://www.w3.org/2000/svg">
<path d="M0.000137329 645C0.000137329 605.42 32.0864 573.334 71.6668 573.334C111.247 573.334 143.333 605.42 143.333 645C143.333 684.581 111.247 716.667 71.6668 716.667C32.0864 716.667 0.000137329 684.581 0.000137329 645Z" fill="url(#paint0_linear_5581_34494)"/>
<path d="M716.667 -0.000301136C637.506 -0.000304596 573.333 64.1722 573.333 143.333L716.667 143.333L716.667 -0.000301136Z" fill="url(#paint1_linear_5581_34494)"/>
<g filter="url(#filter0_b_5581_34494)">
<path d="M392.65 453.117C352.526 475.68 300.972 461.871 277.5 422.272V422.272C254.028 382.674 267.526 332.281 307.65 309.718L309.575 308.636C349.698 286.072 401.252 299.882 424.724 339.481V339.481C448.196 379.079 434.698 429.471 394.575 452.035L392.65 453.117Z" fill="url(#paint2_linear_5581_34494)" fill-opacity="0.3"/>
</g>
<defs>
<filter id="filter0_b_5581_34494" x="255.968" y="287.799" width="190.288" height="186.155" filterUnits="userSpaceOnUse" color-interpolation-filters="sRGB">
<feFlood flood-opacity="0" result="BackgroundImageFix"/>
<feGaussianBlur in="BackgroundImage" stdDeviation="5"/>
<feComposite in2="SourceAlpha" operator="in" result="effect1_backgroundBlur_5581_34494"/>
<feBlend mode="normal" in="SourceGraphic" in2="effect1_backgroundBlur_5581_34494" result="shape"/>
</filter>
<linearGradient id="paint0_linear_5581_34494" x1="71.6668" y1="716.667" x2="71.6668" y2="573.334" gradientUnits="userSpaceOnUse">
<stop stop-color="#D3B25B"/>
<stop offset="1" stop-color="white" stop-opacity="0"/>
</linearGradient>
<linearGradient id="paint1_linear_5581_34494" x1="573.333" y1="71.6664" x2="716.667" y2="71.6664" gradientUnits="userSpaceOnUse">
<stop stop-color="#D3B25B"/>
<stop offset="1" stop-color="white" stop-opacity="0"/>
</linearGradient>
<linearGradient id="paint2_linear_5581_34494" x1="277.5" y1="422.272" x2="422.761" y2="336.168" gradientUnits="userSpaceOnUse">
<stop stop-color="#D3B25B"/>
<stop offset="1" stop-color="#666666" stop-opacity="0"/>
</linearGradient>
</defs>
</svg>
