<svg width="137" height="43" viewBox="0 0 137 43" fill="none" xmlns="http://www.w3.org/2000/svg">
<path d="M43.9853 5.64555L48.7939 5.10889V9.70274H52.9584V13.6955H48.7509V19.8994C48.7509 21.3591 49.3735 22.1104 50.6185 22.1104C51.4128 22.1104 52.0782 21.9816 52.6149 21.7026L53.7097 25.6954C52.6149 26.1247 51.4557 26.3608 50.2321 26.4252C48.3001 26.5111 46.7545 26.0603 45.6383 25.0514C44.522 24.021 43.9639 22.3036 43.9639 19.8779V13.717H41.0229V9.70274H43.9639V5.64555H43.9853Z" fill="#D3B25B"/>
<path d="M58.8187 15.9065H66.6326C66.5896 15.0693 66.1818 14.4253 65.4304 13.9746C64.6791 13.5023 63.7561 13.2662 62.7042 13.2662C61.7382 13.2662 60.9225 13.5023 60.2355 13.9746C59.5271 14.4468 59.0549 15.0908 58.8187 15.9065ZM70.9259 19.4271H58.8187C58.9475 20.2643 59.3983 20.9727 60.1926 21.5308C60.9654 22.0675 61.9958 22.3251 63.3053 22.3251C65.1514 22.3251 66.5682 21.8957 67.5771 21.0156L70.2819 24.0209C68.629 25.6524 66.2891 26.4466 63.2194 26.4466C60.2785 26.4466 58.003 25.6524 56.3715 24.0853C54.7616 22.4968 53.9673 20.3716 53.9673 17.6883C53.9673 15.1552 54.7615 13.1159 56.3286 11.5488C57.9171 9.9603 60.0423 9.1875 62.7042 9.1875C65.6237 9.1875 67.8347 10.0676 69.3803 11.8494C70.9259 13.6311 71.4411 16.1427 70.9259 19.4271Z" fill="#D3B25B"/>
<path d="M74.9399 5.64555L79.7484 5.10889V9.70274H83.913V13.6955H79.7055V19.8994C79.7055 21.3591 80.328 22.1104 81.5731 22.1104C82.3674 22.1104 83.0328 21.9816 83.5695 21.7026L84.6643 25.6954C83.5695 26.1247 82.4103 26.3608 81.1867 26.4252C79.2547 26.5111 77.7091 26.0603 76.5929 25.0514C75.4766 24.021 74.9185 22.3036 74.9185 19.8779V13.717H71.9775V9.70274H74.9185V5.64555H74.9399Z" fill="#D3B25B"/>
<path d="M86.4678 2.74756H91.2977V11.6562C92.4784 10.1321 94.1528 9.35927 96.2995 9.35927C100.679 9.35927 102.868 11.9997 102.868 17.259V26.1032H98.0597V17.3019C98.0597 16.1642 97.7806 15.2841 97.201 14.6615C96.6429 14.039 95.8916 13.7385 94.9256 13.7385C93.8737 13.7385 92.9936 14.1034 92.2852 14.8118C91.5983 15.5202 91.2548 16.5076 91.2548 17.7742V26.1247H86.4463V2.74756H86.4678Z" fill="#D3B25B"/>
<path d="M109.63 15.9065H117.423C117.38 15.0693 116.972 14.4253 116.221 13.9746C115.469 13.5023 114.546 13.2662 113.494 13.2662C112.528 13.2662 111.713 13.5023 111.026 13.9746C110.339 14.4468 109.866 15.0908 109.63 15.9065ZM121.737 19.4271H109.63C109.759 20.2643 110.21 20.9727 111.004 21.5308C111.777 22.0675 112.807 22.3251 114.117 22.3251C115.963 22.3251 117.38 21.8957 118.389 21.0156L121.093 24.0209C119.44 25.6524 117.101 26.4466 114.031 26.4466C111.09 26.4466 108.815 25.6524 107.183 24.0853C105.573 22.4968 104.779 20.3716 104.779 17.6883C104.779 15.1552 105.573 13.1159 107.14 11.5488C108.729 9.9603 110.854 9.1875 113.516 9.1875C116.435 9.1875 118.646 10.0676 120.192 11.8494C121.716 13.6311 122.253 16.1427 121.737 19.4271Z" fill="#D3B25B"/>
<path d="M123.733 9.63833H128.198L128.563 11.4415C129.615 9.9818 131.075 9.23047 132.964 9.23047C134.531 9.23047 135.862 9.7242 137 10.7331L135.003 14.5327C134.231 13.9746 133.35 13.6955 132.363 13.6955C131.268 13.6955 130.367 14.039 129.637 14.7259C128.907 15.3914 128.542 16.3144 128.542 17.4951V26.0603H123.733V9.63833Z" fill="#D3B25B"/>
<path fill-rule="evenodd" clip-rule="evenodd" d="M18.0751 14.6188C22.5186 14.6188 26.2109 13.8674 27.134 12.8585C26.3612 11.9998 23.592 11.3344 20.05 11.1626V13.2878C19.4275 13.3308 18.762 13.3308 18.0751 13.3308C17.3881 13.3308 16.7441 13.3093 16.1001 13.2664V11.1626C12.5581 11.3558 9.78895 12.0213 9.01615 12.8585C9.91775 13.8674 13.6315 14.6188 18.0751 14.6188ZM25.9533 4.63679V7.55624H20.0285V9.5741C24.193 9.78877 27.3057 10.6689 27.3272 11.7422V13.9533C27.3057 15.0266 24.193 15.9067 20.0285 16.1214V21.0802H16.1001V16.1429C11.9356 15.9282 8.82296 15.0481 8.80149 13.9748V11.7422C8.82296 10.6689 11.9356 9.78877 16.1001 9.5741V7.55624H10.1754V4.63679H25.9533ZM7.85696 0H28.6366C29.1304 0 29.5812 0.257599 29.8388 0.686931L35.8923 11.0768C36.2143 11.6134 36.107 12.3004 35.6562 12.7297L18.9981 29.0014C18.4615 29.538 17.5813 29.538 17.0447 29.0014L0.40805 12.7512C-0.0427487 12.3004 -0.128615 11.6134 0.193384 11.0553L6.6763 0.643998C6.9339 0.257599 7.38469 0 7.85696 0Z" fill="#D3B25B"/>
<path d="M86.2959 36.751C86.2959 33.0802 88.2708 31.5132 91.8128 31.5132C93.938 31.5132 95.2689 32.1142 96.1491 33.0588L94.1741 35.0337C93.7233 34.5614 93.1652 34.1321 91.7913 34.1321C89.7735 34.1321 89.1295 35.0981 89.1295 36.794C89.1295 38.683 89.4944 39.6276 91.7484 39.6276C93.3369 39.6276 93.938 39.2412 93.938 38.2537V38.082H91.362V35.785H96.6857V37.6741C96.6857 40.6365 95.3333 42.0103 91.5982 42.0103C87.3048 42.0103 86.2959 40.0784 86.2959 36.751Z" fill="#D3B25B"/>
<path d="M97.8662 36.751C97.8662 32.8441 100.163 31.5132 103.383 31.5132C106.603 31.5132 108.922 32.8441 108.922 36.751C108.922 40.6794 106.603 42.0103 103.383 42.0103C100.163 42.0318 97.8662 40.6794 97.8662 36.751ZM106.045 36.8154C106.045 35.2269 105.508 34.1321 103.383 34.1321C101.258 34.1321 100.721 35.2484 100.721 36.8154C100.721 38.3825 101.258 39.5202 103.383 39.5202C105.508 39.5202 106.045 38.404 106.045 36.8154Z" fill="#D3B25B"/>
<path d="M110.768 31.6851H113.602V39.413H118.389V41.8602H110.768V31.6851Z" fill="#D3B25B"/>
<path d="M119.956 31.6851H123.777C127.877 31.6851 129.68 32.6511 129.68 36.7726C129.68 40.8084 127.898 41.8602 123.777 41.8602H119.956V31.6851ZM123.948 39.3916C126.503 39.3916 126.803 38.6617 126.803 36.7726C126.803 34.8836 126.546 34.2396 123.82 34.2396H122.811V39.3916H123.948Z" fill="#D3B25B"/>
</svg>
